<svg width="11" height="16" viewBox="0 0 11 16" fill="none" xmlns="http://www.w3.org/2000/svg">
<path d="M9 2H8V1C8.27612 1 8.5 0.776125 8.5 0.5C8.5 0.223875 8.27612 0 8 0H3C2.72388 0 2.5 0.223875 2.5 0.5C2.5 0.776125 2.72388 1 3 1V2H2C0.897187 2 0 2.89719 0 4V13C0 14.1028 0.897187 15 2 15H2.25V15.5C2.25 15.7761 2.47388 16 2.75 16C3.02612 16 3.25 15.7761 3.25 15.5V15H7.75V15.5C7.75 15.7761 7.97388 16 8.25 16C8.52612 16 8.75 15.7761 8.75 15.5V15H9C10.1028 15 11 14.1028 11 13V4C11 2.89719 10.1028 2 9 2ZM4 1H7V2H4V1ZM10 13C10 13.5514 9.55141 14 9 14H2C1.44859 14 1 13.5514 1 13V4C1 3.44859 1.44859 3 2 3H9C9.55141 3 10 3.44859 10 4V13Z" fill="white"/>
<path d="M5.5 4.25C5.22388 4.25 5 4.47387 5 4.75V12.25C5 12.5261 5.22388 12.75 5.5 12.75C5.77612 12.75 6 12.5261 6 12.25V4.75C6 4.47387 5.77612 4.25 5.5 4.25ZM8 4.25C7.72388 4.25 7.5 4.47387 7.5 4.75V12.25C7.5 12.5261 7.72388 12.75 8 12.75C8.27612 12.75 8.5 12.5261 8.5 12.25V4.75C8.5 4.47387 8.27612 4.25 8 4.25ZM3 4.25C2.72387 4.25 2.5 4.47387 2.5 4.75V12.25C2.5 12.5261 2.72387 12.75 3 12.75C3.27613 12.75 3.5 12.5261 3.5 12.25V4.75C3.5 4.47387 3.27613 4.25 3 4.25Z" fill="white"/>
</svg>
