<svg width="18" height="19" viewBox="0 0 18 19" fill="none" xmlns="http://www.w3.org/2000/svg">
<path fill-rule="evenodd" clip-rule="evenodd" d="M15.3359 3.6611L18.0079 0.989098H11.0079V7.9891L13.9259 5.0701C14.5289 5.6661 15.0319 6.3691 15.3899 7.1721C15.7879 8.0661 15.9889 9.0191 15.9889 10.0071C15.9889 13.8541 12.8589 16.9841 9.01289 16.9841C5.16589 16.9841 2.03589 13.8541 2.03589 10.0071C2.03589 6.5051 4.63289 3.6051 7.99989 3.1121V1.0921C3.52589 1.5971 0.0358887 5.4001 0.0358887 10.0071C0.0358887 14.9571 4.06389 18.9841 9.01289 18.9841C13.9619 18.9841 17.9889 14.9571 17.9889 10.0071C17.9889 8.7381 17.7299 7.5111 17.2169 6.3591C16.7579 5.3281 16.1099 4.4251 15.3359 3.6611Z" fill="white"/>
</svg>
